<?xml version="1.0" encoding="UTF-8"?>
<!DOCTYPE svg PUBLIC "-//W3C//DTD SVG 1.1//EN" "http://www.w3.org/Graphics/SVG/1.1/DTD/svg11.dtd">
<!-- Creator: CorelDRAW (Versión de evaluación) -->
<svg xmlns="http://www.w3.org/2000/svg" xml:space="preserve" width="199.767mm" height="112.135mm" version="1.1" style="shape-rendering:geometricPrecision; text-rendering:geometricPrecision; image-rendering:optimizeQuality; fill-rule:evenodd; clip-rule:evenodd"
viewBox="0 0 19976.7 11213.5"
 xmlns:xlink="http://www.w3.org/1999/xlink"
 xmlns:xodm="http://www.corel.com/coreldraw/odm/2003">
 <defs>
  <style type="text/css">
   <![CDATA[
    .fil3 {fill:#409B46}
    .fil6 {fill:#419C47}
    .fil7 {fill:#429C45}
    .fil1 {fill:#429C47}
    .fil8 {fill:#429D4A}
    .fil0 {fill:#429E4A}
    .fil5 {fill:#449D47}
    .fil4 {fill:#459E4D}
    .fil2 {fill:#46A14D}
    .fil9 {fill:#75A978}
    .fil12 {fill:#A7D7A8}
    .fil10 {fill:#A8CE98}
    .fil14 {fill:#B9C6C5}
    .fil15 {fill:#C9CEB5}
    .fil11 {fill:#D7D7C9}
    .fil13 {fill:#F5F8F5}
   ]]>
  </style>
 </defs>
 <g id="Capa_x0020_1">
  <metadata id="CorelCorpID_0Corel-Layer"/>
  <g id="_1991874841664">
   <path class="fil0" d="M15156.52 6761.19c49.96,-29.58 34.96,-70.8 33.85,-150.02l-3.14 -2795.12c-21.38,-79.37 -12.58,-39.92 -47.36,-46.42 -226.39,12.41 -1349.08,-27.81 -1451.69,27.61 -27.6,93.41 -30.66,2755.26 -2.74,2936.93 92.73,32.92 1305.4,40.22 1471.08,27.02z"/>
   <path class="fil1" d="M24.18 6743.88c185.67,0.41 1420.43,35.48 1476.95,-5.2 50.98,-77.58 28.94,-2836.35 -28.64,-2951.95 -163.5,-37.6 -1152.59,16.46 -1448.31,-2.33l0 2959.48z"/>
   <path class="fil2" d="M16837.89 5178.96c0,171.64 -2.02,656.16 37.22,761.84 12,32.34 29.38,62.95 43.86,105.96 42.35,125.74 139.4,267.93 231.25,368.06 98.83,107.73 217.1,185.59 343.43,255.87 262.57,146.09 502.91,106.4 809.19,106.4 44.97,0 45.9,-7.95 83.24,-16.65 1.68,-75.28 16.64,-66.15 16.64,-149.82 0,-686.89 24.02,-2037.9 -11.35,-2650.68 -4.61,-79.78 11.35,-14.17 11.35,-96.11 0,-62.7 -10.95,-31.48 -16.64,-99.88 -117.07,-27.28 -518.39,-31.42 -634.92,-2.33 -75.29,18.79 -36.53,17.1 -108.51,41.31 -141.93,47.75 -154.16,55.96 -265.44,134.1l-41.15 25.44c-86.64,58.79 -175.5,141.5 -239.19,226.93 -52.76,70.8 -75.97,99.22 -120.83,178.81 -143.01,253.69 -138.15,485.68 -138.15,810.75z"/>
   <path class="fil3" d="M7368.48 5245.55c133.4,0 271.34,8.67 380.02,-16.65 30.32,-364.42 16.64,-1055.75 16.64,-1431.66l-16.64 -0.09c-935.36,-28.11 -1922.21,-7.46 -2863.13,0.09 -74.06,156.73 -38.84,505.01 -39.16,699.18 -0.22,137.73 -23.78,623.83 -6.42,699.27 65.13,16.52 529.46,8.78 628.04,6.23 185,-4.77 432.88,18.69 632.59,20.37 210.92,1.76 421.87,-4.56 632.6,-6.63 107.83,-1.05 214.82,-4.32 316.29,-7.58 109.97,-3.54 185.34,2.8 299.65,-10.26 32.16,30.19 46.68,-46.02 19.52,47.73z"/>
   <path class="fil4" d="M10428.7 5045.78c0,203.88 -10.51,798.49 58.82,956.66 43.5,99.21 76.92,185.63 142.14,274.04l154.77 178.18c2.41,2.43 5.84,5.96 8.26,8.38 85.97,86.44 184.83,148.15 291.77,207.65 264.25,147.02 507.23,106.4 825.85,106.4 51.17,0 66.58,-48.77 66.58,-99.88l0 -2830.03c0,-148.15 -120.88,-99.88 -499.42,-99.88 -50.25,0 -93.14,5.01 -121.93,11.24 -85.63,18.54 -43.42,15.43 -109.73,40.1 -87.38,32.5 -42.29,-0.2 -155.03,61.37 -26.1,14.25 -30.06,13.97 -55.55,27.69l-31.21 18.74c-2.95,1.95 -6.79,4.95 -9.69,6.96l-123.45 92.95c-136.56,106.69 -288.4,286.9 -346.34,452.73 -52.13,149.21 -45.17,22.27 -76.24,306.65 -11.3,103.43 -19.6,168.68 -19.6,280.05z"/>
   <path class="fil0" d="M18452.67 3813.89l0 2879.96c0,44.97 7.95,45.9 16.64,83.24 266.46,0 523.04,40.3 721.62,-44.16l218.47 -97.83 267.17 -215.59c115.96,-126.6 181.59,-226.36 248.9,-383.7 20.42,-47.75 15.98,-68.33 27.1,-122.73 14.95,-73.21 48.29,-77.73 48.29,-118.18l0 -1048.77c0,-53.21 -16.31,-19.48 -37.83,-78.7 -33.99,-93.53 20.18,-46.72 -54.85,-194.86 -80.45,-158.84 -63.69,-172.88 -221.59,-344.41 -2.33,-2.52 -5.66,-6.14 -7.97,-8.68l-127.83 -121.88c-3.65,-3.19 -13.7,-12.75 -17.38,-15.91l-18.01 -15.29c-17.6,-13.78 -59.72,-43.4 -77.9,-55.28l-162.78 -86.92c-48.75,-16.69 -52.89,-12.57 -100.35,-32.84 -160.9,-68.71 -446.14,-44.06 -655.11,-44.06 -38.97,0 -66.59,27.62 -66.59,66.59z"/>
   <path class="fil5" d="M3203.8 3813.89l0 2064.25c0,84.36 32.07,83.6 94.1,122.31l96.63 53.2c35.03,19.58 16.78,13.14 50,33.24l1168.48 646.06c62.34,41.12 44.16,27.49 138.98,27.49 5.51,-66.13 16.65,-40.09 16.65,-83.23 0,-97.55 -21.59,15.03 -3,-151.69 17.89,-160.51 -3.72,-1204.8 -12.77,-1314.14 -17.26,-208.5 -0.89,-860.02 -0.88,-1147.78 0.01,-101.24 37.05,-316.3 -66.58,-316.3l-1415.02 0c-38.97,0 -66.59,27.62 -66.59,66.59z"/>
   <path class="fil1" d="M1605.67 3847.18c0,392.52 -26.52,2744.64 16.65,2929.91 269.04,0 1361.68,22.92 1531.54,-16.65l0.12 -1981.13c1.11,-167.1 16.38,-180 -90.44,-242.52l-147.24 -85.82c-48.12,-31.59 -34.22,-20.18 -88.36,-44.81l-1091.89 -606.12c-57.49,-31.08 -37.68,-36.09 -113.73,-36.09 -8.71,37.33 -16.65,38.27 -16.65,83.23z"/>
   <path class="fil6" d="M7815.08 3763.95l0 1448.3c40.26,19.32 72.83,33.3 133.18,33.3l2313.97 0c153.89,0 99.38,-159.58 99.29,-299.8 -0.06,-96.13 13.17,-122.64 17.32,-199.54l-0.08 -932.32c0,-38.97 -27.62,-66.59 -66.59,-66.59 -293.05,0 -2392.76,-23.85 -2497.09,16.65z"/>
   <path class="fil1" d="M7831.73 5295.49c-19.31,40.25 -33.29,72.82 -33.29,133.17l0 1248.55c0,51.11 15.41,99.88 66.59,99.88l2447.14 0c38.97,0 66.59,-27.62 66.59,-66.59l0.39 -832.75c0.39,-96.65 -12.92,-121.95 -17.12,-199.3 -3.31,-61.09 -2.25,-154.17 3.12,-214.66 23.5,-264.69 -63.05,-168.3 -835.4,-168.3 -566.01,0 -1132.01,0 -1698.02,0z"/>
   <path class="fil0" d="M12060.13 5295.49c-39.87,171.13 -16.65,1238.37 -16.65,1498.25 0,88.29 6.33,196.19 23.19,276.46 12.46,59.3 30.48,69.38 50.47,116.01l17.46 49.12c17.37,43.58 10.86,25.71 28.18,55.06 45.23,76.69 68.26,122.91 126.52,189.77l72.25 77.58c67.3,67.06 86.61,93.83 169.96,146.34l195.49 120.8c175.84,84.94 673.29,151.42 848.03,67.57 37.37,-160.4 15.53,-727.98 16.76,-965.64 0.67,-130.99 -17.71,-189.04 -16.98,-315.97 1.64,-286.1 31.86,-1108.07 -16.43,-1315.35 -216.88,-18.05 -1081.46,0 -1365.07,0l-133.18 0z"/>
   <path class="fil7" d="M7016.02 6749.06l0.08 11.38c25.7,-220.97 8.16,-503.95 0.88,-729.85 -7.65,-237.27 -0.54,-485.16 -15.34,-722.98 -10.91,-1.27 -1292,-25.74 -1381.95,-1.33l-53.7 38.68c-48.26,113.95 -19.29,1361.21 -12.12,1398.84l1462.15 5.26z"/>
   <path class="fil8" d="M15239.75 3863.83c0,69.23 11.33,26.41 9.99,81 -5.48,222.41 -47.58,1136.34 23.31,1284.07 120.73,28.13 1233.13,34.56 1301.17,2.69 128.85,-60.34 213.72,-405.95 213.72,-535.4 0,-147.65 -14.81,-297.19 -84.48,-414.93l-11.82 -21.48c-1.76,-3.37 -3.65,-7.87 -5.36,-11.28l-344.57 -371.27c-102.38,-61.57 -244.31,-129.93 -369.48,-129.93l-665.89 0c-63.08,0 -29.59,4.94 -46.68,36.55 -0.26,0.48 -19.91,79.71 -19.91,79.98z"/>
   <path class="fil8" d="M12043.48 3813.89l0 1365.07c0,51.17 48.77,66.59 99.89,66.59l1331.78 0c130.48,0 99.88,-73.48 99.88,-283.01 0,-201.77 -20.83,-410.43 -108.37,-574.16 -75.39,-141.01 -223.94,-314.21 -353.72,-412.06 -28.87,-21.77 -17.65,-12.7 -40.23,-26.36l-176.5 -106.49c-65.53,-36.74 -39.75,-15.64 -112.01,-37.82 -87.17,-26.76 -103.24,-58.35 -224.65,-58.35l-449.48 0c-38.97,0 -66.59,27.62 -66.59,66.59z"/>
   <path class="fil1" d="M16271.88 6777.09c691.79,0 487.64,33.58 482.33,-249.27 -1.92,-102.56 -9.47,-242.16 -30.4,-319.19 -36.95,-136.01 -22.09,-158.19 -38.15,-311.44 -22.8,-217.64 -49.34,-194.55 -64.7,-468.01 -10.75,-191.31 -40.12,-133.32 -365.72,-133.68l-880.54 -3.1c-165.28,-12.73 -149.45,97.75 -120.74,355.11 16.53,148.1 -10.39,188.15 33.51,316.09l117.37 248.87c172.24,273.3 403.99,444.17 705.48,543.06 51.7,16.96 99.57,21.56 161.56,21.56z"/>
   <path class="fil9" d="M7368.48 5245.55c27.16,-93.75 12.64,-17.54 -19.52,-47.73 -114.31,13.06 -189.68,6.72 -299.65,10.26 -101.47,3.26 -208.46,6.53 -316.29,7.58 -210.73,2.07 -421.68,8.39 -632.6,6.63 -199.71,-1.68 -447.59,-25.14 -632.59,-20.37 -98.58,2.55 -562.91,10.29 -628.04,-6.23 -17.36,-75.44 6.2,-561.54 6.42,-699.27 0.32,-194.17 -34.9,-542.45 39.16,-699.18 940.92,-7.55 1927.77,-28.2 2863.13,-0.09 -1.02,-2.43 -6.98,-38.28 -16.65,-49.85l-2896.62 0c-65,135.47 -34.22,1023.54 -33.87,1299.05 0.12,91.22 15.62,110.58 17.22,182.55 176.97,41.23 2190.53,16.65 2549.9,16.65z"/>
   <path class="fil10" d="M24.18 3784.4c295.72,18.79 1284.81,-35.27 1448.31,2.33 57.58,115.6 79.62,2874.37 28.64,2951.95 -56.52,40.68 -1291.28,5.61 -1476.95,5.2 15.82,37.79 -40.34,37.16 166.31,33.53 221.46,-3.89 1308.91,22.72 1348.59,-16.97 51.9,-51.9 11.43,-2392.36 16.94,-2830.32 1.55,-122.85 22.51,-174.87 -99.59,-183.41 -213.92,-14.97 -1165.89,0.59 -1432.25,0.59l0 37.1z"/>
   <path class="fil11" d="M15156.52 6761.19c-165.68,13.2 -1378.35,5.9 -1471.08,-27.02 -27.92,-181.67 -24.86,-2843.52 2.74,-2936.93 102.61,-55.42 1225.3,-15.2 1451.69,-27.61 -40.02,-34.06 -29.44,-24.17 -166.31,-22.55 -214.61,2.54 -1277.01,-21.42 -1315.3,16.87 -51.01,106.31 -16.64,1269.43 -16.64,1498.24 0,228.82 -34.37,1391.94 16.64,1498.25 37.13,37.13 1101.95,15.5 1315.21,16.72 54.83,0.31 136.1,12.48 183.05,-15.97z"/>
   <path class="fil12" d="M7016.02 6749.06l-1462.15 -5.26c-7.17,-37.63 -36.14,-1284.89 12.12,-1398.84l53.7 -38.68c89.95,-24.41 1371.04,0.06 1381.95,1.33 14.8,237.82 7.69,485.71 15.34,722.98 7.28,225.9 24.82,508.88 -0.88,729.85 57.88,-24.22 18.21,30.57 34.46,-65.96l-0.95 -1232.82c1.13,-81.86 19.22,-143.11 -36.36,-163.41 -0.05,-0.02 -1431.45,-23.83 -1469.9,4.95 -40.43,30.27 -15.84,-2.45 -30.11,55.57 -5.78,23.5 -6.59,55.77 -4.52,80.09 20.53,240.74 -5.89,1276.94 16.72,1313.91 34.6,56.59 280.03,24.32 358.57,24.32l1095.41 -5.57c56.02,-19.46 -3.2,28.23 36.6,-22.46z"/>
   <path class="fil13" d="M12909.14 -248.04l0 33.3c119.85,67.33 55.46,-56.89 299.65,0 0,65.72 5.23,67.55 16.65,116.53 132.37,-11.02 156.37,-199.77 -33.3,-199.77l-118.7 10.38c-11.89,0.33 -164.3,-35.35 -164.3,39.56z"/>
   <path class="fil14" d="M9829.4 10955.54l233.06 0c-24.66,-46.6 -26.81,-66.58 -99.88,-66.58l-33.3 0c-67.5,0 -86.21,15.4 -99.88,66.58z"/>
   <path class="fil15" d="M10478.64 10955.54l216.42 0c-10.07,-37.71 -16.01,-66.58 -66.59,-66.58l-83.24 0c-49.15,0 -57.39,28.18 -66.59,66.58z"/>
   <path class="fil11" d="M10944.77 10955.54l199.76 0 0 -49.94c-37.33,-8.7 -38.27,-16.64 -83.23,-16.64l-49.94 0c-49.15,0 -57.4,28.18 -66.59,66.58z"/>
   <path class="fil11" d="M8331.15 10955.54l183.12 0c-11.66,-43.64 -32.15,-66.58 -83.24,-66.58 -67.5,0 -86.21,15.4 -99.88,66.58z"/>
   <path class="fil15" d="M7765.14 10955.54l116.53 0c-37.01,-69.94 -3.93,-49.94 -116.53,-49.94l0 49.94z"/>
  </g>
 </g>
</svg>
